<svg xmlns="http://www.w3.org/2000/svg" xmlns:xlink="http://www.w3.org/1999/xlink" width="800" zoomAndPan="magnify" viewBox="0 0 600 599.999999" height="800" preserveAspectRatio="xMidYMid meet" version="1.0"><defs><g/></defs><g fill="#a6a6a6" fill-opacity="1"><g transform="translate(170.425778, 271.025034)"><g><path d="M 35.765625 12.703125 C 32.359375 12.703125 29.171875 11.726562 26.203125 9.78125 C 23.234375 7.832031 21.75 4.472656 21.75 -0.296875 C 21.75 -3.015625 22.234375 -6.195312 23.203125 -9.84375 C 24.179688 -13.5 25.742188 -18.6875 27.890625 -25.40625 C 31.484375 -36.5 34.28125 -46.375 36.28125 -55.03125 C 38.28125 -63.695312 39.28125 -72.554688 39.28125 -81.609375 C 39.28125 -87.253906 38.644531 -91.5625 37.375 -94.53125 C 36.113281 -97.5 33.78125 -98.984375 30.375 -98.984375 C 27.257812 -98.984375 24.65625 -97.789062 22.5625 -95.40625 C 20.46875 -93.019531 18.910156 -90.097656 17.890625 -86.640625 C 16.867188 -83.191406 16.359375 -79.863281 16.359375 -76.65625 C 16.359375 -73.144531 17.085938 -69.976562 18.546875 -67.15625 C 13.972656 -67.15625 10.566406 -68.222656 8.328125 -70.359375 C 6.085938 -72.503906 4.96875 -75.332031 4.96875 -78.84375 C 4.96875 -82.832031 6.253906 -86.867188 8.828125 -90.953125 C 11.410156 -95.046875 14.867188 -98.429688 19.203125 -101.109375 C 23.535156 -103.785156 28.226562 -105.125 33.28125 -105.125 C 39.800781 -105.125 44.789062 -102.738281 48.25 -97.96875 C 51.707031 -93.195312 53.4375 -86.578125 53.4375 -78.109375 C 53.4375 -71.585938 52.5625 -64.773438 50.8125 -57.671875 C 49.0625 -50.566406 46.476562 -41.515625 43.0625 -30.515625 C 40.34375 -21.953125 38.398438 -15.40625 37.234375 -10.875 C 36.066406 -6.351562 35.484375 -2.335938 35.484375 1.171875 C 35.484375 2.921875 35.722656 4.179688 36.203125 4.953125 C 36.691406 5.734375 37.617188 6.125 38.984375 6.125 C 44.429688 6.125 51.242188 1.304688 59.421875 -8.328125 C 67.597656 -17.960938 74.726562 -29.394531 80.8125 -42.625 C 86.894531 -55.863281 89.9375 -67.445312 89.9375 -77.375 C 89.9375 -86.820312 86.675781 -92.613281 80.15625 -94.75 C 81.414062 -97.476562 83.019531 -99.546875 84.96875 -100.953125 C 86.914062 -102.367188 88.765625 -103.078125 90.515625 -103.078125 C 92.265625 -103.078125 93.992188 -102.296875 95.703125 -100.734375 C 97.410156 -99.179688 98.796875 -96.96875 99.859375 -94.09375 C 100.929688 -91.226562 101.46875 -87.894531 101.46875 -84.09375 C 101.46875 -73.78125 97.742188 -60.835938 90.296875 -45.265625 C 82.847656 -29.691406 73.941406 -16.132812 63.578125 -4.59375 C 53.210938 6.9375 43.941406 12.703125 35.765625 12.703125 Z M 35.765625 12.703125 "/></g></g></g><g fill="#a6a6a6" fill-opacity="1"><g transform="translate(265.028439, 271.025034)"><g><path d="M 28.90625 -61.46875 C 26.863281 -61.46875 25.132812 -61.953125 23.71875 -62.921875 C 22.3125 -63.898438 21.609375 -65.3125 21.609375 -67.15625 C 21.609375 -69.394531 22.847656 -71.363281 25.328125 -73.0625 C 27.804688 -74.769531 30.457031 -75.625 33.28125 -75.625 C 37.46875 -75.625 39.5625 -73.820312 39.5625 -70.21875 C 39.5625 -68.175781 38.441406 -66.207031 36.203125 -64.3125 C 33.960938 -62.414062 31.53125 -61.46875 28.90625 -61.46875 Z M 11.6875 4.375 C 7.59375 4.375 4.425781 3.15625 2.1875 0.71875 C -0.0507812 -1.707031 -1.171875 -4.816406 -1.171875 -8.609375 C -1.171875 -12.503906 -0.078125 -17.785156 2.109375 -24.453125 C 4.304688 -31.117188 7.082031 -36.984375 10.4375 -42.046875 C 13.789062 -47.109375 17.175781 -49.640625 20.59375 -49.640625 C 21.851562 -49.640625 22.894531 -49.273438 23.71875 -48.546875 C 24.550781 -47.816406 24.96875 -46.769531 24.96875 -45.40625 C 24.96875 -44.53125 24.578125 -43.335938 23.796875 -41.828125 C 23.015625 -40.316406 21.75 -38.148438 20 -35.328125 C 16.882812 -30.171875 14.425781 -25.617188 12.625 -21.671875 C 10.820312 -17.734375 9.921875 -14.015625 9.921875 -10.515625 C 9.921875 -7.492188 10.457031 -5.445312 11.53125 -4.375 C 12.601562 -3.3125 14.257812 -2.78125 16.5 -2.78125 C 24.1875 -2.78125 31.828125 -10.222656 39.421875 -25.109375 L 41.609375 -22.78125 C 38.203125 -14.207031 33.867188 -7.535156 28.609375 -2.765625 C 23.359375 1.992188 17.71875 4.375 11.6875 4.375 Z M 11.6875 4.375 "/></g></g></g><g fill="#a6a6a6" fill-opacity="1"><g transform="translate(300.650508, 271.025034)"><g><path d="M 17.078125 7.453125 C 10.265625 7.453125 5.226562 5.476562 1.96875 1.53125 C -1.289062 -2.40625 -2.921875 -7.101562 -2.921875 -12.5625 C -2.921875 -16.351562 -2.238281 -19.003906 -0.875 -20.515625 C 0.488281 -22.023438 2.019531 -23.164062 3.71875 -23.9375 C 5.425781 -24.71875 6.425781 -25.253906 6.71875 -25.546875 C 12.945312 -31.972656 17.664062 -38.640625 20.875 -45.546875 L 20.875 -47.015625 C 20.875 -50.609375 21.484375 -53.28125 22.703125 -55.03125 C 23.921875 -56.789062 25.503906 -57.671875 27.453125 -57.671875 C 29.585938 -57.671875 30.753906 -56.695312 30.953125 -54.75 C 30.953125 -54.257812 30.828125 -53.523438 30.578125 -52.546875 C 30.335938 -51.578125 30.21875 -50.5625 30.21875 -49.5 C 30.21875 -47.644531 30.507812 -45.695312 31.09375 -43.65625 C 31.675781 -41.613281 32.601562 -38.835938 33.875 -35.328125 C 35.425781 -31.046875 36.613281 -27.347656 37.4375 -24.234375 C 38.269531 -21.117188 38.6875 -17.957031 38.6875 -14.75 C 38.6875 -13.09375 38.492188 -11.097656 38.109375 -8.765625 C 44.722656 -10.410156 50.460938 -15.910156 55.328125 -25.265625 L 57.09375 -23.9375 C 55.144531 -18.394531 52.441406 -13.921875 48.984375 -10.515625 C 45.523438 -7.109375 41.460938 -5.0625 36.796875 -4.375 C 35.234375 -0.488281 32.695312 2.453125 29.1875 4.453125 C 25.6875 6.453125 21.648438 7.453125 17.078125 7.453125 Z M 26.578125 -9.046875 C 26.867188 -9.921875 27.015625 -11.429688 27.015625 -13.578125 C 26.910156 -16.691406 26.566406 -19.753906 25.984375 -22.765625 C 25.398438 -25.785156 24.523438 -29.679688 23.359375 -34.453125 L 22.046875 -39.71875 C 17.273438 -31.4375 13.039062 -25.351562 9.34375 -21.46875 C 11 -18.644531 13.332031 -16.085938 16.34375 -13.796875 C 19.363281 -11.503906 22.773438 -9.921875 26.578125 -9.046875 Z M 16.0625 1.015625 C 18.007812 1.015625 19.832031 0.53125 21.53125 -0.4375 C 23.238281 -1.40625 24.53125 -2.816406 25.40625 -4.671875 C 21.601562 -5.453125 18.097656 -6.9375 14.890625 -9.125 C 11.679688 -11.3125 9.101562 -13.671875 7.15625 -16.203125 C 5.789062 -15.910156 5.109375 -14.597656 5.109375 -12.265625 C 5.109375 -8.765625 6.082031 -5.675781 8.03125 -3 C 9.976562 -0.320312 12.65625 1.015625 16.0625 1.015625 Z M 16.0625 1.015625 "/></g></g></g><g fill="#a6a6a6" fill-opacity="1"><g transform="translate(351.893739, 271.025034)"><g><path d="M 28.90625 -61.46875 C 26.863281 -61.46875 25.132812 -61.953125 23.71875 -62.921875 C 22.3125 -63.898438 21.609375 -65.3125 21.609375 -67.15625 C 21.609375 -69.394531 22.847656 -71.363281 25.328125 -73.0625 C 27.804688 -74.769531 30.457031 -75.625 33.28125 -75.625 C 37.46875 -75.625 39.5625 -73.820312 39.5625 -70.21875 C 39.5625 -68.175781 38.441406 -66.207031 36.203125 -64.3125 C 33.960938 -62.414062 31.53125 -61.46875 28.90625 -61.46875 Z M 11.6875 4.375 C 7.59375 4.375 4.425781 3.15625 2.1875 0.71875 C -0.0507812 -1.707031 -1.171875 -4.816406 -1.171875 -8.609375 C -1.171875 -12.503906 -0.078125 -17.785156 2.109375 -24.453125 C 4.304688 -31.117188 7.082031 -36.984375 10.4375 -42.046875 C 13.789062 -47.109375 17.175781 -49.640625 20.59375 -49.640625 C 21.851562 -49.640625 22.894531 -49.273438 23.71875 -48.546875 C 24.550781 -47.816406 24.96875 -46.769531 24.96875 -45.40625 C 24.96875 -44.53125 24.578125 -43.335938 23.796875 -41.828125 C 23.015625 -40.316406 21.75 -38.148438 20 -35.328125 C 16.882812 -30.171875 14.425781 -25.617188 12.625 -21.671875 C 10.820312 -17.734375 9.921875 -14.015625 9.921875 -10.515625 C 9.921875 -7.492188 10.457031 -5.445312 11.53125 -4.375 C 12.601562 -3.3125 14.257812 -2.78125 16.5 -2.78125 C 24.1875 -2.78125 31.828125 -10.222656 39.421875 -25.109375 L 41.609375 -22.78125 C 38.203125 -14.207031 33.867188 -7.535156 28.609375 -2.765625 C 23.359375 1.992188 17.71875 4.375 11.6875 4.375 Z M 11.6875 4.375 "/></g></g></g><g fill="#a6a6a6" fill-opacity="1"><g transform="translate(387.515796, 271.025034)"><g><path d="M 13.28125 6.71875 C 8.800781 6.71875 5.296875 5.425781 2.765625 2.84375 C 0.242188 0.269531 -1.015625 -3.546875 -1.015625 -8.609375 C -1.015625 -12.410156 -0.285156 -17.253906 1.171875 -23.140625 C 2.628906 -29.023438 4.578125 -35.28125 7.015625 -41.90625 C 4.484375 -42.382812 2.773438 -42.820312 1.890625 -43.21875 L 1.890625 -47.734375 C 4.234375 -47.441406 6.570312 -47.203125 8.90625 -47.015625 C 13.28125 -58.015625 17.972656 -67.453125 22.984375 -75.328125 C 28.003906 -83.210938 32.070312 -87.15625 35.1875 -87.15625 C 36.257812 -87.15625 37.207031 -86.765625 38.03125 -85.984375 C 38.863281 -85.210938 39.28125 -84.191406 39.28125 -82.921875 C 39.28125 -81.367188 38.597656 -79.273438 37.234375 -76.640625 C 35.867188 -74.015625 33.628906 -70.023438 30.515625 -64.671875 C 26.234375 -57.472656 22.875 -51.441406 20.4375 -46.578125 C 31.632812 -46.578125 40.539062 -46.914062 47.15625 -47.59375 L 47.15625 -42.78125 C 35.675781 -41.613281 25.894531 -41.03125 17.8125 -41.03125 C 12.75 -29.050781 10.21875 -19.269531 10.21875 -11.6875 C 10.21875 -7.6875 10.847656 -4.859375 12.109375 -3.203125 C 13.378906 -1.554688 15.378906 -0.734375 18.109375 -0.734375 C 22.972656 -0.734375 27.957031 -2.945312 33.0625 -7.375 C 38.175781 -11.800781 42.628906 -17.8125 46.421875 -25.40625 L 48.46875 -23.9375 C 44.476562 -14.882812 39.316406 -7.507812 32.984375 -1.8125 C 26.660156 3.875 20.09375 6.71875 13.28125 6.71875 Z M 13.28125 6.71875 "/></g></g></g><g fill="#ff3131" fill-opacity="1"><g transform="translate(14.4375, 422.525028)"><g><path d="M 17.078125 12.703125 C 14.066406 12.703125 11.296875 11.898438 8.765625 10.296875 C 6.234375 8.691406 4.96875 6.71875 4.96875 4.375 C 4.96875 2.71875 5.597656 -0.00390625 6.859375 -3.796875 C 14.359375 -26.765625 20.394531 -44.671875 24.96875 -57.515625 C 29.539062 -70.367188 35.132812 -84.144531 41.75 -98.84375 C 36.789062 -97.675781 31.679688 -95.726562 26.421875 -93 C 24.085938 -91.832031 22.675781 -91.25 22.1875 -91.25 C 21.3125 -91.25 20.164062 -91.953125 18.75 -93.359375 C 17.34375 -94.773438 16.640625 -95.96875 16.640625 -96.9375 C 29.679688 -102.394531 41.117188 -105.125 50.953125 -105.125 C 57.378906 -105.125 63.726562 -104.003906 70 -101.765625 C 76.28125 -99.523438 81.460938 -96.238281 85.546875 -91.90625 C 89.640625 -87.570312 91.6875 -82.4375 91.6875 -76.5 C 91.6875 -67.15625 87.9375 -59.953125 80.4375 -54.890625 C 72.945312 -49.828125 64.75 -46.441406 55.84375 -44.734375 C 46.9375 -43.035156 39.414062 -42.1875 33.28125 -42.1875 L 32.40625 -42.1875 L 24.234375 -12.84375 C 22.191406 -5.0625 19.804688 3.453125 17.078125 12.703125 Z M 33.71875 -46.71875 C 41.507812 -47.207031 48.882812 -48.71875 55.84375 -51.25 C 62.800781 -53.78125 68.492188 -57.378906 72.921875 -62.046875 C 77.347656 -66.722656 79.5625 -72.320312 79.5625 -78.84375 C 79.5625 -85.550781 76.984375 -90.707031 71.828125 -94.3125 C 66.671875 -97.914062 60.394531 -99.816406 53 -100.015625 C 47.15625 -88.722656 40.726562 -70.957031 33.71875 -46.71875 Z M 33.71875 -46.71875 "/></g></g></g><g fill="#ff3131" fill-opacity="1"><g transform="translate(86.410912, 422.525028)"><g><path d="M 8.171875 6.859375 C 4.765625 6.859375 1.921875 5.738281 -0.359375 3.5 C -2.648438 1.257812 -3.796875 -1.898438 -3.796875 -5.984375 C -3.796875 -11.628906 -1.726562 -17.957031 2.40625 -24.96875 C 6.539062 -31.976562 11.820312 -37.914062 18.25 -42.78125 C 24.675781 -47.644531 31.097656 -50.078125 37.515625 -50.078125 C 41.804688 -50.078125 45.382812 -48.984375 48.25 -46.796875 C 51.125 -44.609375 52.5625 -41.804688 52.5625 -38.390625 C 52.5625 -33.921875 49.785156 -31.585938 44.234375 -31.390625 C 47.742188 -30.316406 49.5 -28.859375 49.5 -27.015625 C 49.5 -26.328125 49.15625 -25.300781 48.46875 -23.9375 C 47.789062 -22.582031 47.015625 -21.171875 46.140625 -19.703125 C 44.578125 -17.171875 43.359375 -14.957031 42.484375 -13.0625 C 41.609375 -11.164062 41.171875 -9.390625 41.171875 -7.734375 C 41.171875 -6.273438 41.535156 -5.035156 42.265625 -4.015625 C 42.992188 -2.992188 44.085938 -2.484375 45.546875 -2.484375 C 48.273438 -2.484375 51.753906 -4.378906 55.984375 -8.171875 C 60.222656 -11.972656 64.335938 -17.671875 68.328125 -25.265625 L 71.109375 -22.484375 C 67.503906 -14.398438 63.023438 -7.898438 57.671875 -2.984375 C 52.316406 1.921875 46.914062 4.375 41.46875 4.375 C 37.570312 4.375 34.578125 3.082031 32.484375 0.5 C 30.390625 -2.070312 29.34375 -5.015625 29.34375 -8.328125 C 24.96875 -3.066406 21.222656 0.773438 18.109375 3.203125 C 14.992188 5.640625 11.679688 6.859375 8.171875 6.859375 Z M 11.234375 -0.578125 C 14.648438 -0.578125 18.617188 -3.035156 23.140625 -7.953125 C 27.671875 -12.867188 32.804688 -19.269531 38.546875 -27.15625 L 41.46875 -31.09375 C 41.757812 -31.582031 42.144531 -31.828125 42.625 -31.828125 L 43.21875 -31.6875 C 43.707031 -33.238281 43.953125 -35.035156 43.953125 -37.078125 C 43.953125 -42.140625 41.90625 -44.671875 37.8125 -44.671875 C 33.53125 -44.671875 29.050781 -42.382812 24.375 -37.8125 C 19.707031 -33.238281 15.789062 -27.785156 12.625 -21.453125 C 9.46875 -15.128906 7.890625 -9.726562 7.890625 -5.25 C 7.890625 -3.601562 8.15625 -2.410156 8.6875 -1.671875 C 9.21875 -0.941406 10.066406 -0.578125 11.234375 -0.578125 Z M 11.234375 -0.578125 "/></g></g></g><g fill="#ff3131" fill-opacity="1"><g transform="translate(151.231401, 422.525028)"><g><path d="M 12.5625 4.375 C 8.269531 4.375 5.148438 2.960938 3.203125 0.140625 C 1.265625 -2.679688 0.296875 -6.425781 0.296875 -11.09375 C 0.296875 -20.050781 3.335938 -32.023438 9.421875 -47.015625 C 15.503906 -62.003906 22.335938 -75.4375 29.921875 -87.3125 C 37.515625 -99.1875 43.113281 -105.125 46.71875 -105.125 C 48.375 -105.125 49.785156 -103.832031 50.953125 -101.25 C 52.117188 -98.664062 52.753906 -96.0625 52.859375 -93.4375 C 52.859375 -88.957031 51.054688 -82.410156 47.453125 -73.796875 C 43.847656 -65.179688 39.003906 -56.445312 32.921875 -47.59375 C 26.835938 -38.738281 20.34375 -31.585938 13.4375 -26.140625 C 12.363281 -20.097656 11.828125 -15.519531 11.828125 -12.40625 C 11.828125 -9 12.382812 -6.46875 13.5 -4.8125 C 14.625 -3.164062 16.160156 -2.34375 18.109375 -2.34375 C 21.515625 -2.34375 25.140625 -4.601562 28.984375 -9.125 C 32.828125 -13.644531 36.257812 -19.117188 39.28125 -25.546875 L 42.78125 -23.65625 C 38.5 -14.789062 33.773438 -7.898438 28.609375 -2.984375 C 23.453125 1.921875 18.101562 4.375 12.5625 4.375 Z M 16.0625 -35.1875 C 21.3125 -40.832031 26.25 -47.453125 30.875 -55.046875 C 35.5 -62.640625 39.195312 -69.84375 41.96875 -76.65625 C 44.75 -83.46875 46.140625 -88.523438 46.140625 -91.828125 C 44.867188 -91.828125 42.3125 -88.859375 38.46875 -82.921875 C 34.625 -76.984375 30.582031 -69.609375 26.34375 -60.796875 C 22.113281 -51.992188 18.6875 -43.457031 16.0625 -35.1875 Z M 16.0625 -35.1875 "/></g></g></g><g fill="#ff3131" fill-opacity="1"><g transform="translate(186.999462, 422.525028)"><g><path d="M 16.9375 6.421875 C 10.800781 6.421875 6.03125 4.765625 2.625 1.453125 C -0.78125 -1.847656 -2.484375 -6.078125 -2.484375 -11.234375 C -2.484375 -16.878906 -0.585938 -22.988281 3.203125 -29.5625 C 7.003906 -36.132812 11.875 -41.632812 17.8125 -46.0625 C 23.75 -50.488281 29.585938 -52.703125 35.328125 -52.703125 C 38.347656 -52.703125 40.878906 -51.945312 42.921875 -50.4375 C 44.960938 -48.9375 45.984375 -46.429688 45.984375 -42.921875 C 45.984375 -38.253906 44.179688 -33.847656 40.578125 -29.703125 C 36.984375 -25.566406 32.335938 -22.1875 26.640625 -19.5625 C 20.953125 -16.9375 15.140625 -15.28125 9.203125 -14.59375 C 9.003906 -13.625 8.90625 -12.503906 8.90625 -11.234375 C 8.90625 -8.710938 9.609375 -6.1875 11.015625 -3.65625 C 12.429688 -1.125 15.472656 0.140625 20.140625 0.140625 C 26.078125 0.140625 32.132812 -2.265625 38.3125 -7.078125 C 44.5 -11.898438 49.492188 -17.910156 53.296875 -25.109375 L 56.203125 -22.78125 C 52.316406 -14.019531 46.742188 -6.960938 39.484375 -1.609375 C 32.234375 3.742188 24.71875 6.421875 16.9375 6.421875 Z M 10.796875 -20 C 14.304688 -20.394531 18.222656 -21.804688 22.546875 -24.234375 C 26.878906 -26.671875 30.554688 -29.664062 33.578125 -33.21875 C 36.597656 -36.769531 38.109375 -40.25 38.109375 -43.65625 C 38.109375 -44.726562 37.910156 -45.457031 37.515625 -45.84375 C 37.128906 -46.226562 36.5 -46.421875 35.625 -46.421875 C 32.800781 -46.421875 29.707031 -45.082031 26.34375 -42.40625 C 22.988281 -39.726562 19.898438 -36.347656 17.078125 -32.265625 C 14.253906 -28.179688 12.160156 -24.09375 10.796875 -20 Z M 10.796875 -20 "/></g></g></g><g fill="#ff3131" fill-opacity="1"><g transform="translate(236.782781, 422.525028)"><g><path d="M 76.359375 4.53125 C 72.753906 4.53125 69.976562 3.457031 68.03125 1.3125 C 66.082031 -0.820312 65.109375 -3.546875 65.109375 -6.859375 C 65.109375 -8.421875 65.328125 -10.148438 65.765625 -12.046875 C 66.210938 -13.941406 66.726562 -15.71875 67.3125 -17.375 C 68.570312 -21.363281 69.203125 -24.285156 69.203125 -26.140625 C 69.203125 -29.054688 68.082031 -30.515625 65.84375 -30.515625 C 63.707031 -30.515625 61.226562 -28.957031 58.40625 -25.84375 C 55.582031 -22.726562 51.785156 -17.617188 47.015625 -10.515625 C 45.847656 -8.765625 44.09375 -5.796875 41.75 -1.609375 L 38.984375 3.359375 C 37.234375 3.359375 35.332031 3.015625 33.28125 2.328125 C 31.238281 1.648438 30.21875 0.726562 30.21875 -0.4375 C 30.21875 -1.40625 31.238281 -4.519531 33.28125 -9.78125 C 35.226562 -14.84375 36.8125 -19.269531 38.03125 -23.0625 C 39.25 -26.863281 39.859375 -30.03125 39.859375 -32.5625 C 39.859375 -35.476562 38.835938 -36.9375 36.796875 -36.9375 C 34.160156 -36.9375 30.75 -34.867188 26.5625 -30.734375 C 22.382812 -26.597656 18.25 -21.34375 14.15625 -14.96875 C 10.070312 -8.59375 6.910156 -2.289062 4.671875 3.9375 C 2.921875 3.9375 0.851562 3.445312 -1.53125 2.46875 C -3.914062 1.5 -5.109375 0.675781 -5.109375 0 L 4.234375 -37.375 C 4.523438 -38.445312 5.570312 -39.394531 7.375 -40.21875 C 9.175781 -41.050781 10.804688 -41.46875 12.265625 -41.46875 C 13.722656 -41.46875 14.914062 -41.03125 15.84375 -40.15625 C 16.769531 -39.28125 17.234375 -38.109375 17.234375 -36.640625 C 17.234375 -35.085938 16.550781 -31.585938 15.1875 -26.140625 C 19.851562 -32.554688 24.664062 -37.878906 29.625 -42.109375 C 34.59375 -46.347656 39.269531 -48.46875 43.65625 -48.46875 C 46.96875 -48.46875 49.328125 -47.300781 50.734375 -44.96875 C 52.148438 -42.632812 52.859375 -39.710938 52.859375 -36.203125 C 52.859375 -34.359375 52.660156 -32.628906 52.265625 -31.015625 C 51.878906 -29.410156 51.25 -27.25 50.375 -24.53125 C 57.1875 -34.550781 64.242188 -39.5625 71.546875 -39.5625 C 75.046875 -39.5625 77.597656 -38.515625 79.203125 -36.421875 C 80.804688 -34.328125 81.609375 -31.722656 81.609375 -28.609375 C 81.609375 -25.492188 80.632812 -21.113281 78.6875 -15.46875 C 78.59375 -15.082031 78.226562 -13.816406 77.59375 -11.671875 C 76.96875 -9.535156 76.65625 -7.785156 76.65625 -6.421875 C 76.65625 -3.796875 77.867188 -2.484375 80.296875 -2.484375 C 83.804688 -2.484375 87.238281 -4.71875 90.59375 -9.1875 C 93.945312 -13.664062 97.085938 -19.023438 100.015625 -25.265625 L 102.484375 -22.1875 C 99.671875 -14.882812 96.046875 -8.601562 91.609375 -3.34375 C 87.179688 1.90625 82.097656 4.53125 76.359375 4.53125 Z M 76.359375 4.53125 "/></g></g></g><g fill="#ff3131" fill-opacity="1"><g transform="translate(333.137567, 422.525028)"><g><path d="M 15.328125 10.65625 C 9.878906 10.65625 5.691406 8.953125 2.765625 5.546875 C -0.148438 2.140625 -1.609375 -2.628906 -1.609375 -8.765625 C -1.609375 -17.910156 1.304688 -30.144531 7.140625 -45.46875 C 12.984375 -60.800781 19.648438 -74.429688 27.140625 -86.359375 C 34.640625 -98.285156 40.535156 -104.25 44.828125 -104.25 C 46.671875 -104.25 48.101562 -103.222656 49.125 -101.171875 C 50.144531 -99.128906 50.707031 -96.796875 50.8125 -94.171875 C 50.8125 -89.492188 49.203125 -83.382812 45.984375 -75.84375 C 42.773438 -68.300781 38.566406 -61.070312 33.359375 -54.15625 C 28.148438 -47.25 22.675781 -42.144531 16.9375 -38.84375 C 15.570312 -36.3125 14.132812 -32.148438 12.625 -26.359375 C 11.113281 -20.566406 10.359375 -14.992188 10.359375 -9.640625 C 10.359375 -5.359375 10.96875 -1.925781 12.1875 0.65625 C 13.40625 3.238281 15.328125 4.53125 17.953125 4.53125 C 20.484375 4.53125 23.207031 3.382812 26.125 1.09375 C 29.050781 -1.195312 31.4375 -4.046875 33.28125 -7.453125 C 29.78125 -9.390625 27.082031 -12.085938 25.1875 -15.546875 C 23.289062 -19.003906 22.34375 -22.726562 22.34375 -26.71875 C 22.34375 -31.382812 23.609375 -35.203125 26.140625 -38.171875 C 28.671875 -41.140625 31.832031 -42.625 35.625 -42.625 C 38.9375 -42.625 41.5625 -41.382812 43.5 -38.90625 C 45.445312 -36.425781 46.421875 -32.800781 46.421875 -28.03125 C 46.421875 -22.09375 44.960938 -15.960938 42.046875 -9.640625 L 44.671875 -9.484375 C 49.148438 -9.484375 52.847656 -11.039062 55.765625 -14.15625 C 58.691406 -17.269531 61.273438 -21.117188 63.515625 -25.703125 L 65.703125 -22.625 C 63.078125 -16.59375 59.984375 -12.140625 56.421875 -9.265625 C 52.867188 -6.398438 48.320312 -4.96875 42.78125 -4.96875 C 41.414062 -4.96875 40.394531 -5.015625 39.71875 -5.109375 C 36.695312 -0.335938 33.140625 3.476562 29.046875 6.34375 C 24.960938 9.21875 20.390625 10.65625 15.328125 10.65625 Z M 19.703125 -48.03125 C 23.703125 -51.632812 27.550781 -56.332031 31.25 -62.125 C 34.945312 -67.914062 37.960938 -73.507812 40.296875 -78.90625 C 42.628906 -84.3125 43.847656 -88.179688 43.953125 -90.515625 C 42.679688 -90.035156 40.488281 -87.601562 37.375 -83.21875 C 34.257812 -78.84375 31.046875 -73.46875 27.734375 -67.09375 C 24.429688 -60.71875 21.753906 -54.363281 19.703125 -48.03125 Z M 35.765625 -12.265625 C 37.515625 -16.253906 38.390625 -20.390625 38.390625 -24.671875 C 38.390625 -27.984375 38 -30.515625 37.21875 -32.265625 C 36.445312 -34.015625 35.425781 -34.890625 34.15625 -34.890625 C 32.894531 -34.890625 31.800781 -34.015625 30.875 -32.265625 C 29.945312 -30.515625 29.484375 -28.421875 29.484375 -25.984375 C 29.484375 -23.554688 29.992188 -21.050781 31.015625 -18.46875 C 32.046875 -15.882812 33.628906 -13.816406 35.765625 -12.265625 Z M 35.765625 -12.265625 "/></g></g></g><g fill="#ff3131" fill-opacity="1"><g transform="translate(392.848326, 422.525028)"><g><path d="M 8.171875 6.859375 C 4.765625 6.859375 1.921875 5.738281 -0.359375 3.5 C -2.648438 1.257812 -3.796875 -1.898438 -3.796875 -5.984375 C -3.796875 -11.628906 -1.726562 -17.957031 2.40625 -24.96875 C 6.539062 -31.976562 11.820312 -37.914062 18.25 -42.78125 C 24.675781 -47.644531 31.097656 -50.078125 37.515625 -50.078125 C 41.804688 -50.078125 45.382812 -48.984375 48.25 -46.796875 C 51.125 -44.609375 52.5625 -41.804688 52.5625 -38.390625 C 52.5625 -33.921875 49.785156 -31.585938 44.234375 -31.390625 C 47.742188 -30.316406 49.5 -28.859375 49.5 -27.015625 C 49.5 -26.328125 49.15625 -25.300781 48.46875 -23.9375 C 47.789062 -22.582031 47.015625 -21.171875 46.140625 -19.703125 C 44.578125 -17.171875 43.359375 -14.957031 42.484375 -13.0625 C 41.609375 -11.164062 41.171875 -9.390625 41.171875 -7.734375 C 41.171875 -6.273438 41.535156 -5.035156 42.265625 -4.015625 C 42.992188 -2.992188 44.085938 -2.484375 45.546875 -2.484375 C 48.273438 -2.484375 51.753906 -4.378906 55.984375 -8.171875 C 60.222656 -11.972656 64.335938 -17.671875 68.328125 -25.265625 L 71.109375 -22.484375 C 67.503906 -14.398438 63.023438 -7.898438 57.671875 -2.984375 C 52.316406 1.921875 46.914062 4.375 41.46875 4.375 C 37.570312 4.375 34.578125 3.082031 32.484375 0.5 C 30.390625 -2.070312 29.34375 -5.015625 29.34375 -8.328125 C 24.96875 -3.066406 21.222656 0.773438 18.109375 3.203125 C 14.992188 5.640625 11.679688 6.859375 8.171875 6.859375 Z M 11.234375 -0.578125 C 14.648438 -0.578125 18.617188 -3.035156 23.140625 -7.953125 C 27.671875 -12.867188 32.804688 -19.269531 38.546875 -27.15625 L 41.46875 -31.09375 C 41.757812 -31.582031 42.144531 -31.828125 42.625 -31.828125 L 43.21875 -31.6875 C 43.707031 -33.238281 43.953125 -35.035156 43.953125 -37.078125 C 43.953125 -42.140625 41.90625 -44.671875 37.8125 -44.671875 C 33.53125 -44.671875 29.050781 -42.382812 24.375 -37.8125 C 19.707031 -33.238281 15.789062 -27.785156 12.625 -21.453125 C 9.46875 -15.128906 7.890625 -9.726562 7.890625 -5.25 C 7.890625 -3.601562 8.15625 -2.410156 8.6875 -1.671875 C 9.21875 -0.941406 10.066406 -0.578125 11.234375 -0.578125 Z M 11.234375 -0.578125 "/></g></g></g><g fill="#ff3131" fill-opacity="1"><g transform="translate(457.668804, 422.525028)"><g><path d="M 49.203125 2.921875 C 45.503906 2.921875 42.628906 1.992188 40.578125 0.140625 C 38.535156 -1.703125 37.515625 -4.132812 37.515625 -7.15625 C 37.515625 -8.414062 37.734375 -9.875 38.171875 -11.53125 C 38.617188 -13.1875 39.082031 -14.84375 39.5625 -16.5 C 40.925781 -20.976562 41.609375 -24.285156 41.609375 -26.421875 C 41.609375 -28.367188 41.117188 -29.804688 40.140625 -30.734375 C 39.171875 -31.660156 37.957031 -32.125 36.5 -32.125 C 31.34375 -32.125 26.132812 -28.882812 20.875 -22.40625 C 15.625 -15.9375 9.976562 -7.738281 3.9375 2.1875 C -0.25 2.1875 -3.410156 0.773438 -5.546875 -2.046875 L -4.234375 -5.6875 C 1.503906 -19.613281 4.375 -29.929688 4.375 -36.640625 C 5.15625 -37.515625 6.273438 -38.316406 7.734375 -39.046875 C 9.191406 -39.785156 10.601562 -40.15625 11.96875 -40.15625 C 13.625 -40.15625 14.890625 -39.765625 15.765625 -38.984375 C 16.640625 -38.203125 17.078125 -37.128906 17.078125 -35.765625 C 17.078125 -33.140625 16.25 -28.8125 14.59375 -22.78125 C 18.976562 -28.613281 23.53125 -33.378906 28.25 -37.078125 C 32.96875 -40.773438 37.613281 -42.625 42.1875 -42.625 C 46.082031 -42.625 49.097656 -41.285156 51.234375 -38.609375 C 53.378906 -35.941406 54.453125 -32.753906 54.453125 -29.046875 C 54.453125 -26.910156 54.1875 -24.867188 53.65625 -22.921875 C 53.125 -20.972656 52.320312 -18.785156 51.25 -16.359375 C 49.59375 -12.265625 48.765625 -9.195312 48.765625 -7.15625 C 48.765625 -5.695312 49.101562 -4.625 49.78125 -3.9375 C 50.46875 -3.257812 51.296875 -2.921875 52.265625 -2.921875 C 55.484375 -2.921875 58.960938 -5.132812 62.703125 -9.5625 C 66.453125 -13.988281 69.835938 -19.222656 72.859375 -25.265625 L 75.34375 -23.21875 C 71.832031 -15.132812 67.957031 -8.753906 63.71875 -4.078125 C 59.488281 0.585938 54.648438 2.921875 49.203125 2.921875 Z M 49.203125 2.921875 "/></g></g></g><g fill="#ff3131" fill-opacity="1"><g transform="translate(526.723092, 422.525028)"><g><path d="M 7.296875 40.875 C 4.578125 40.875 2.242188 40.070312 0.296875 38.46875 C -1.648438 36.863281 -2.625 34.550781 -2.625 31.53125 C -2.625 27.738281 -1.191406 24.285156 1.671875 21.171875 C 4.546875 18.054688 7.878906 15.398438 11.671875 13.203125 C 15.472656 11.015625 20.488281 8.460938 26.71875 5.546875 C 29.15625 -0.585938 31.101562 -6.671875 32.5625 -12.703125 C 24.675781 -2.773438 17.273438 2.1875 10.359375 2.1875 C 6.472656 2.1875 3.382812 0.828125 1.09375 -1.890625 C -1.195312 -4.617188 -2.34375 -8.222656 -2.34375 -12.703125 C -2.34375 -19.222656 -0.203125 -25.398438 4.078125 -31.234375 C 8.367188 -37.078125 13.675781 -41.773438 20 -45.328125 C 26.320312 -48.878906 32.359375 -50.65625 38.109375 -50.65625 C 41.117188 -50.65625 43.425781 -50.117188 45.03125 -49.046875 C 46.644531 -47.984375 47.453125 -46.671875 47.453125 -45.109375 C 47.453125 -44.140625 47.160156 -43.265625 46.578125 -42.484375 C 45.992188 -41.703125 45.503906 -41.265625 45.109375 -41.171875 C 44.140625 -42.140625 43.164062 -42.816406 42.1875 -43.203125 C 41.21875 -43.597656 40.003906 -43.796875 38.546875 -43.796875 C 33.773438 -43.796875 29.148438 -42.019531 24.671875 -38.46875 C 20.191406 -34.914062 16.566406 -30.632812 13.796875 -25.625 C 11.023438 -20.613281 9.640625 -16.113281 9.640625 -12.125 C 9.640625 -10.175781 10.050781 -8.6875 10.875 -7.65625 C 11.707031 -6.632812 12.800781 -6.125 14.15625 -6.125 C 16.789062 -6.125 20.03125 -7.828125 23.875 -11.234375 C 27.71875 -14.648438 31.535156 -19.03125 35.328125 -24.375 C 36.398438 -29.832031 37.664062 -33.753906 39.125 -36.140625 C 40.582031 -38.523438 42.675781 -39.71875 45.40625 -39.71875 C 46.664062 -39.71875 48.078125 -39.519531 49.640625 -39.125 C 49.640625 -36.59375 48.566406 -31.53125 46.421875 -23.9375 C 44.285156 -16.351562 41.707031 -8.472656 38.6875 -0.296875 C 43.550781 -2.335938 48.242188 -5.523438 52.765625 -9.859375 C 57.296875 -14.191406 60.535156 -19.175781 62.484375 -24.8125 L 65.109375 -22.1875 C 62.972656 -16.0625 59.15625 -10.515625 53.65625 -5.546875 C 48.15625 -0.585938 42.535156 3.207031 36.796875 5.84375 C 32.316406 16.644531 27.664062 25.179688 22.84375 31.453125 C 18.03125 37.734375 12.847656 40.875 7.296875 40.875 Z M 6.71875 34.15625 C 8.664062 34.15625 11.195312 32.351562 14.3125 28.75 C 17.425781 25.15625 20.632812 19.707031 23.9375 12.40625 C 17.613281 15.519531 12.695312 18.460938 9.1875 21.234375 C 5.6875 24.015625 3.9375 26.960938 3.9375 30.078125 C 3.9375 31.335938 4.203125 32.332031 4.734375 33.0625 C 5.273438 33.789062 5.9375 34.15625 6.71875 34.15625 Z M 6.71875 34.15625 "/></g></g></g></svg>